<svg id="Tools_Performance_AQ_EXPANDED" data-name="Tools + Performance AQ EXPANDED" xmlns="http://www.w3.org/2000/svg" viewBox="0 0 120 120"><defs><style>.cls-1{fill:#fff;}</style></defs><path class="cls-1" d="M39.7,7.54a.73.73,0,0,0-.77.78.69.69,0,0,0,.74.75h0a.71.71,0,0,0,.77-.77A.71.71,0,0,0,39.7,7.54Z"/><path class="cls-1" d="M42.76,7.54a.73.73,0,0,0-.77.78.7.7,0,0,0,.74.75h0a.71.71,0,0,0,.77-.77A.71.71,0,0,0,42.76,7.54Z"/><path class="cls-1" d="M45.82,7.54a.73.73,0,0,0-.77.78.7.7,0,0,0,.75.75h0a.71.71,0,0,0,.77-.77A.71.71,0,0,0,45.82,7.54Z"/><path class="cls-1" d="M101.51,58.05V42.91H58.9V32.62H82.19V2h-49V32.62H55.84V42.91H16.46V58.05H1.91v57.28H32.53v-3.07H5V61.11H32.53V58.05h-13V46H55.84v9.26H38.45V118H81.31V55.23H58.9V46H98.45V58.05h-11v3.06H115v51.15H87.47v3.07h30.62V58.05ZM36.26,12.52H74.53V11H36.26V5.06H79.13V29.55H36.26Zm42,102.42H41.51V58.29H78.25Z"/><rect class="cls-1" x="47.63" y="100.93" width="24.5" height="3.06"/><rect class="cls-1" x="47.63" y="89.34" width="24.5" height="3.06"/><rect class="cls-1" x="47.63" y="78.07" width="24.5" height="3.06"/><rect class="cls-1" x="47.63" y="66.77" width="24.5" height="3.06"/><rect class="cls-1" x="10.93" y="103.67" width="21.43" height="3.06"/><rect class="cls-1" x="10.93" y="92.08" width="21.43" height="3.06"/><rect class="cls-1" x="10.93" y="80.81" width="21.43" height="3.06"/><rect class="cls-1" x="10.93" y="69.51" width="21.43" height="3.06"/><rect class="cls-1" x="87.54" y="103.67" width="21.43" height="3.06"/><rect class="cls-1" x="87.54" y="92.08" width="21.43" height="3.06"/><rect class="cls-1" x="87.54" y="80.81" width="21.43" height="3.06"/><rect class="cls-1" x="87.54" y="69.51" width="21.43" height="3.06"/><rect class="cls-1" x="59.86" y="18.06" width="3.06" height="9.41" transform="translate(10.98 64.55) rotate(-60)"/><polygon class="cls-1" points="61.69 16.24 50.08 16.24 55.88 26.29 61.69 16.24"/></svg>