<svg id="Business_AQ_Expanded" data-name="Business AQ  Expanded" xmlns="http://www.w3.org/2000/svg" viewBox="0 0 120 120"><defs><style>.cls-1{fill:#fff;}</style></defs><path class="cls-1" d="M69.42,75.4a6.24,6.24,0,1,1,0-12.47,6,6,0,0,1,6.23,6.24A6.24,6.24,0,0,1,69.42,75.4Zm0-9.35a3.12,3.12,0,1,0,3.12,3.12A2.9,2.9,0,0,0,69.42,66.05Z"/><path class="cls-1" d="M68.22,107a39,39,0,0,1-38.94-39,1.56,1.56,0,1,1,3.11,0,35.88,35.88,0,0,0,35.83,35.84,1.56,1.56,0,0,1,0,3.12Z"/><path class="cls-1" d="M110.74,32.56a1.54,1.54,0,0,1-1.1-.46l-7-7a1.56,1.56,0,1,1,2.2-2.2l7,7a1.56,1.56,0,0,1-1.11,2.66Z"/><path class="cls-1" d="M73.46,66.68A1.57,1.57,0,0,1,72.36,64L92.67,43.7a1.56,1.56,0,1,1,2.2,2.21L74.56,66.22A1.56,1.56,0,0,1,73.46,66.68Z"/><path class="cls-1" d="M76.2,19.17V15.38H73.08v3.46c-1.21-.09-2.43-.15-3.66-.15s-2.26.06-3.38.13V13.14H79.4A6,6,0,0,0,85.17,6.9,6.39,6.39,0,0,0,78.63.67H60.54A6.39,6.39,0,0,0,54,6.9a6.1,6.1,0,0,0,6,6.24h3v6A49.74,49.74,0,0,0,31.34,36.47H23.06v3.11h5.87a49.47,49.47,0,0,0-9.21,26.58H11.58v3.12h8.1a49.51,49.51,0,0,0,9.55,28.46h-6.8v3.12h9.12v-.19A49.74,49.74,0,1,0,76.2,19.17ZM57.11,6.9a3.29,3.29,0,0,1,3.43-3.12H78.63A3.29,3.29,0,0,1,82.06,6.9,2.93,2.93,0,0,1,79.4,10H60A3,3,0,0,1,57.11,6.9ZM69.42,115.09a46.64,46.64,0,1,1,46.64-46.64A46.7,46.7,0,0,1,69.42,115.09Z"/><rect class="cls-1" x="11.68" y="36.47" width="5.14" height="3.12"/><rect class="cls-1" x="5.36" y="36.47" width="3.2" height="3.12"/><rect class="cls-1" x="11.68" y="97.74" width="5.77" height="3.12"/><rect class="cls-1" x="5.36" y="97.74" width="3.2" height="3.12"/><rect class="cls-1" x="1" y="66.16" width="4.35" height="3.12"/></svg>