<svg id="VMware_Apps_EXPAND_AQ" data-name="VMware Apps EXPAND AQ" xmlns="http://www.w3.org/2000/svg" viewBox="0 0 120 104.86"><defs><style>.cls-1{fill:#0091da;}</style></defs><path class="cls-1" d="M14.79,13.51l-3.28,7.71H10.27L7,13.51H8.24l2.65,6.25,2.65-6.25Z"/><path class="cls-1" d="M16.37,13.51h1.12l2.67,5,2.68-5H24v7.71H22.84V15.73l-2.68,5-2.67-5v5.49H16.37Z"/><path class="cls-1" d="M31.69,32H.88V.83H31.69ZM4,28.86H28.61V3.94H4Z"/><path class="cls-1" d="M59,13.51,55.7,21.22H54.46l-3.27-7.71h1.24l2.65,6.25,2.65-6.25Z"/><path class="cls-1" d="M60.56,13.51h1.12l2.67,5,2.68-5h1.12v7.71H67V15.73l-2.68,5-2.67-5v5.49H60.56Z"/><path class="cls-1" d="M75.06,32H44.26V.83h30.8ZM47.34,28.86H72V3.94H47.34Z"/><path class="cls-1" d="M101,13.51l-3.27,7.71H96.49l-3.27-7.71h1.24l2.65,6.25,2.65-6.25Z"/><path class="cls-1" d="M102.59,13.51h1.12l2.67,5,2.68-5h1.12v7.71h-1.12V15.73l-2.68,5-2.67-5v5.49h-1.12Z"/><path class="cls-1" d="M117.9,32H87.1V.83h30.8ZM90.18,28.86h24.64V3.94H90.18Z"/><path class="cls-1" d="M115.38,47.87V72.79H4.48V47.87h110.9m3.08-3.12H1.4V75.9H118.46V44.75Z"/><path class="cls-1" d="M59.89,56.59a3.74,3.74,0,1,1-3.7,3.74,3.71,3.71,0,0,1,3.7-3.74m0-2.49a6.23,6.23,0,1,0,6.16,6.23,6.19,6.19,0,0,0-6.16-6.23Z"/><rect class="cls-1" x="10.27" y="54.1" width="3.08" height="12.46"/><rect class="cls-1" x="16.45" y="54.1" width="3.08" height="12.46"/><rect class="cls-1" x="22.67" y="54.14" width="3.08" height="12.46"/><rect class="cls-1" x="93.56" y="54.1" width="3.08" height="12.46"/><rect class="cls-1" x="99.74" y="54.1" width="3.08" height="12.46"/><rect class="cls-1" x="105.92" y="54.1" width="3.08" height="12.46"/><polygon class="cls-1" points="118.46 104.11 1.4 104.11 1.4 79.19 4.48 79.19 4.48 101 115.38 101 115.38 79.19 118.46 79.19 118.46 104.11"/><path class="cls-1" d="M59.76,84.94a3.65,3.65,0,1,1-3.7,3.65,3.67,3.67,0,0,1,3.7-3.65m0-2.5a6.15,6.15,0,1,0,6.16,6.15,6.15,6.15,0,0,0-6.16-6.15Z"/><rect class="cls-1" x="10.31" y="82.27" width="3.08" height="12.28"/><rect class="cls-1" x="16.49" y="82.27" width="3.08" height="12.28"/><rect class="cls-1" x="22.67" y="82.27" width="3.08" height="12.28"/><rect class="cls-1" x="93.43" y="82.27" width="3.08" height="12.28"/><rect class="cls-1" x="99.61" y="82.27" width="3.08" height="12.28"/><rect class="cls-1" x="105.79" y="82.27" width="3.08" height="12.28"/></svg>