<?xml version="1.0" encoding="UTF-8" standalone="no"?>
<svg
   xmlns:dc="http://purl.org/dc/elements/1.1/"
   xmlns:cc="http://creativecommons.org/ns#"
   xmlns:rdf="http://www.w3.org/1999/02/22-rdf-syntax-ns#"
   xmlns:svg="http://www.w3.org/2000/svg"
   xmlns="http://www.w3.org/2000/svg"
   viewBox="0 0 511.4375 135.7375"
   height="135.7375"
   width="511.4375"
   xml:space="preserve"
   version="1.1"
   id="svg3355"><metadata
     id="metadata3361"><rdf:RDF><cc:Work
         rdf:about=""><dc:format>image/svg+xml</dc:format><dc:type
           rdf:resource="http://purl.org/dc/dcmitype/StillImage" /><dc:title></dc:title></cc:Work></rdf:RDF></metadata><defs
     id="defs3359"><clipPath
       id="clipPath3387"
       clipPathUnits="userSpaceOnUse"><path
         id="path3389"
         d="M 142.293,245.191 637.223,582.551 74.8398,348.098" /></clipPath><linearGradient
       id="linearGradient3391"
       spreadMethod="pad"
       gradientTransform="matrix(-493.8,-339.007,339.007,-493.8,601.845,634.081)"
       gradientUnits="userSpaceOnUse"
       y2="0"
       x2="1"
       y1="0"
       x1="0"><stop
         id="stop3393"
         offset="0"
         style="stop-opacity:1;stop-color:#ffffff" /><stop
         id="stop3395"
         offset="1"
         style="stop-opacity:1;stop-color:#80c64c" /></linearGradient><clipPath
       id="clipPath3405"
       clipPathUnits="userSpaceOnUse"><path
         id="path3407"
         d="M 85.2852,570.719 516.813,593.84 54.5195,690.582" /></clipPath><linearGradient
       id="linearGradient3409"
       spreadMethod="pad"
       gradientTransform="matrix(-304.079,-208.759,208.759,-304.079,420.197,734.568)"
       gradientUnits="userSpaceOnUse"
       y2="0"
       x2="1"
       y1="0"
       x1="0"><stop
         id="stop3411"
         offset="0"
         style="stop-opacity:1;stop-color:#ffffff" /><stop
         id="stop3413"
         offset="1"
         style="stop-opacity:1;stop-color:#22437e" /></linearGradient><clipPath
       id="clipPath3423"
       clipPathUnits="userSpaceOnUse"><path
         id="path3425"
         d="m 538.137,270.234 95.324,293.5 -205.699,-247.089" /></clipPath><linearGradient
       id="linearGradient3427"
       spreadMethod="pad"
       gradientTransform="matrix(-255.101,-175.134,175.134,-255.101,686.667,486.234)"
       gradientUnits="userSpaceOnUse"
       y2="0"
       x2="1"
       y1="0"
       x1="0"><stop
         id="stop3429"
         offset="0"
         style="stop-opacity:1;stop-color:#ffffff" /><stop
         id="stop3431"
         offset="1"
         style="stop-opacity:1;stop-color:#65a5de" /></linearGradient><clipPath
       id="clipPath3441"
       clipPathUnits="userSpaceOnUse"><path
         id="path3443"
         d="M 857.758,94.3906 656.035,546.801 745.172,53.6406" /></clipPath><linearGradient
       id="linearGradient3445"
       spreadMethod="pad"
       gradientTransform="matrix(-102.35,-449.574,449.574,-102.35,800.888,513.826)"
       gradientUnits="userSpaceOnUse"
       y2="0"
       x2="1"
       y1="0"
       x1="0"><stop
         id="stop3447"
         offset="0"
         style="stop-opacity:1;stop-color:#ffffff" /><stop
         id="stop3449"
         offset="1"
         style="stop-opacity:1;stop-color:#c6da3a" /></linearGradient><clipPath
       id="clipPath3459"
       clipPathUnits="userSpaceOnUse"><path
         id="path3461"
         d="M 481.316,864.746 635.938,602.125 594.625,903.445" /></clipPath><linearGradient
       id="linearGradient3463"
       spreadMethod="pad"
       gradientTransform="matrix(67.7401,274.401,-274.401,67.7401,532.514,627.656)"
       gradientUnits="userSpaceOnUse"
       y2="0"
       x2="1"
       y1="0"
       x1="0"><stop
         id="stop3465"
         offset="0"
         style="stop-opacity:1;stop-color:#ffffff" /><stop
         id="stop3467"
         offset="1"
         style="stop-opacity:1;stop-color:#c6da3a" /></linearGradient><clipPath
       id="clipPath3477"
       clipPathUnits="userSpaceOnUse"><path
         id="path3479"
         d="M 1085.54,913.828 683.598,585.359 1140.12,805.109" /></clipPath><linearGradient
       id="linearGradient3481"
       spreadMethod="pad"
       gradientTransform="matrix(441.375,262.068,-262.068,441.375,675.147,599.59)"
       gradientUnits="userSpaceOnUse"
       y2="0"
       x2="1"
       y1="0"
       x1="0"><stop
         id="stop3483"
         offset="0"
         style="stop-opacity:1;stop-color:#ffffff" /><stop
         id="stop3485"
         offset="1"
         style="stop-opacity:1;stop-color:#22638b" /></linearGradient><clipPath
       id="clipPath3495"
       clipPathUnits="userSpaceOnUse"><path
         id="path3497"
         d="M 1177.19,335.031 693.664,556.211 1106.69,235.887" /></clipPath><linearGradient
       id="linearGradient3499"
       spreadMethod="pad"
       gradientTransform="matrix(450.785,-274.875,274.875,450.785,694.818,558.101)"
       gradientUnits="userSpaceOnUse"
       y2="0"
       x2="1"
       y1="0"
       x1="0"><stop
         id="stop3501"
         offset="0"
         style="stop-opacity:1;stop-color:#ffffff" /><stop
         id="stop3503"
         offset="1"
         style="stop-opacity:1;stop-color:#a6dbe7" /></linearGradient><clipPath
       id="clipPath3513"
       clipPathUnits="userSpaceOnUse"><path
         id="path3515"
         d="M 209.754,773.73 592.074,586.313 280.926,872.391" /></clipPath><linearGradient
       id="linearGradient3517"
       spreadMethod="pad"
       gradientTransform="matrix(-360.263,223.047,-223.047,-360.263,601.957,602.271)"
       gradientUnits="userSpaceOnUse"
       y2="0"
       x2="1"
       y1="0"
       x1="0"><stop
         id="stop3519"
         offset="0"
         style="stop-opacity:1;stop-color:#ffffff" /><stop
         id="stop3521"
         offset="1"
         style="stop-opacity:1;stop-color:#a6dbe7" /></linearGradient></defs><g
     transform="matrix(1.25,0,0,-1.25,0,135.7375)"
     id="g3363"><g
       transform="scale(0.1,0.1)"
       id="g3365"><path
         id="path3367"
         style="fill:#696566;fill-opacity:1;fill-rule:nonzero;stroke:none"
         d="m 1544.2,536.77 c 69.27,0 114.66,37.031 114.66,91.972 l 0,1.192 c 0,59.726 -44.79,90.781 -112.28,90.781 l -105.7,0 0,-183.945 103.32,0 z m -150.51,203.652 c 0,13.141 10.75,23.891 23.29,23.891 l 133.19,0 c 94.36,0 156.47,-50.172 156.47,-132.586 l 0,-1.192 c 0,-90.183 -75.25,-136.765 -164.24,-136.765 l -101.52,0 0,-126.622 c 0,-13.132 -10.76,-23.886 -23.9,-23.886 -12.54,0 -23.29,10.754 -23.29,23.886 l 0,373.274" /><path
         id="path3369"
         style="fill:#696566;fill-opacity:1;fill-rule:nonzero;stroke:none"
         d="m 1765.51,743.41 c 0,13.141 10.76,23.887 23.29,23.887 13.14,0 23.9,-10.746 23.9,-23.887 l 0,-164.836 241.28,0 0,164.836 c 0,13.141 10.74,23.887 23.88,23.887 12.55,0 23.3,-10.746 23.3,-23.887 l 0,-376.262 c 0,-13.132 -10.75,-23.886 -23.3,-23.886 -13.14,0 -23.88,10.754 -23.88,23.886 l 0,167.227 -241.28,0 0,-167.227 c 0,-13.132 -10.76,-23.886 -23.9,-23.886 -12.53,0 -23.29,10.754 -23.29,23.886 l 0,376.262" /><path
         id="path3371"
         style="fill:#696566;fill-opacity:1;fill-rule:nonzero;stroke:none"
         d="m 2554.86,554.082 0,1.203 c 0,94.957 -69.28,172.598 -164.83,172.598 -95.56,0 -163.65,-76.445 -163.65,-171.406 l 0,-1.192 c 0,-94.961 69.28,-172.597 164.84,-172.597 95.55,0 163.64,76.445 163.64,171.394 z m -377.45,0 0,1.203 c 0,115.262 86.6,216.192 213.81,216.192 127.2,0 212.6,-99.739 212.6,-215 l 0,-1.192 c 0,-115.265 -86.59,-216.203 -213.79,-216.203 -127.22,0 -212.62,99.738 -212.62,215" /><path
         id="path3373"
         style="fill:#696566;fill-opacity:1;fill-rule:nonzero;stroke:none"
         d="m 2756.35,720.715 -121.24,0 c -11.94,0 -22.09,9.555 -22.09,21.5 0,11.941 10.15,22.098 22.09,22.098 l 290.26,0 c 11.94,0 22.1,-10.157 22.1,-22.098 0,-11.945 -10.16,-21.5 -22.1,-21.5 l -121.23,0 0,-353.567 c 0,-13.132 -10.75,-23.886 -23.9,-23.886 -13.13,0 -23.89,10.754 -23.89,23.886 l 0,353.567" /><path
         id="path3375"
         style="fill:#696566;fill-opacity:1;fill-rule:nonzero;stroke:none"
         d="m 3332.78,554.082 0,1.203 c 0,94.957 -69.28,172.598 -164.83,172.598 -95.56,0 -163.65,-76.445 -163.65,-171.406 l 0,-1.192 c 0,-94.961 69.28,-172.597 164.84,-172.597 95.55,0 163.64,76.445 163.64,171.394 z m -377.45,0 0,1.203 c 0,115.262 86.6,216.192 213.81,216.192 127.2,0 212.6,-99.739 212.6,-215 l 0,-1.192 c 0,-115.265 -86.59,-216.203 -213.79,-216.203 -127.22,0 -212.62,99.738 -212.62,215" /><path
         id="path3377"
         style="fill:#696566;fill-opacity:1;fill-rule:nonzero;stroke:none"
         d="m 3458.31,742.813 c 0,12.539 10.75,23.292 23.29,23.292 l 6.57,0 c 10.75,0 17.32,-5.375 23.89,-13.742 l 253.83,-323.691 0,315.332 c 0,12.547 10.14,23.293 23.29,23.293 12.54,0 22.69,-10.746 22.69,-23.293 l 0,-377.449 c 0,-12.539 -8.96,-22.09 -21.5,-22.09 l -2.4,0 c -10.14,0 -17.31,5.965 -24.48,14.324 l -259.2,331.465 0,-323.699 c 0,-12.539 -10.14,-23.293 -23.29,-23.293 -12.54,0 -22.69,10.754 -22.69,23.293 l 0,376.258" /><path
         id="path3379"
         style="fill:#696566;fill-opacity:1;fill-rule:nonzero;stroke:none"
         d="m 3982.91,759.98 c 0,4.528 3.13,7.665 7.66,7.665 l 2.09,0 c 3.14,0 5.22,-1.395 6.97,-3.829 l 37.6,-58.503 38.3,58.503 c 1.74,2.434 3.83,3.829 6.61,3.829 l 2.09,0 c 3.83,0 7.32,-3.485 7.32,-7.665 l 0,-94.011 c 0,-4.18 -3.49,-7.66 -7.66,-7.66 -4.18,0 -7.31,3.48 -7.31,7.66 l 0,72.426 -32.38,-48.403 c -1.75,-2.785 -3.83,-4.527 -6.97,-4.527 -3.13,0 -5.22,1.742 -6.96,4.527 l -32.04,48.403 0,-72.426 c 0,-4.18 -3.48,-7.66 -7.66,-7.66 -4.18,0 -7.66,3.48 -7.66,7.66 l 0,94.011 z m -73.47,-7.308 -28.91,0 c -3.82,0 -7.3,3.48 -7.3,7.308 0,3.836 3.48,7.317 7.3,7.317 l 72.78,0 c 4.18,0 7.31,-3.481 7.31,-7.317 0,-3.828 -3.13,-7.308 -7.31,-7.308 l -28.55,0 0,-86.703 c 0,-4.18 -3.48,-7.66 -8.01,-7.66 -4.18,0 -7.31,3.48 -7.31,7.66 l 0,86.703" /><path
         id="path3381"
         style="fill:#696566;fill-opacity:1;fill-rule:nonzero;stroke:none"
         d="m 597.898,989.039 c -236.39,0 -428.714,-192.324 -428.714,-428.719 0,-236.39 192.324,-428.715 428.714,-428.715 236.395,0 428.722,192.325 428.722,428.715 0,236.395 -192.327,428.719 -428.722,428.719 z m 0,-954.289 c -289.796,0 -525.566,235.773 -525.566,525.57 0,289.797 235.77,525.57 525.566,525.57 289.801,0 525.572,-235.773 525.572,-525.57 0,-289.797 -235.771,-525.57 -525.572,-525.57" /><g
         id="g3383"><g
           clip-path="url(#clipPath3387)"
           id="g3385"><path
             id="path3397"
             style="fill:url(#linearGradient3391);fill-opacity:1;fill-rule:nonzero;stroke:none"
             d="M 142.293,245.191 637.223,582.551 74.8398,348.098" /></g></g><path
         id="path3399"
         style="fill:#62b92c;fill-opacity:1;fill-rule:nonzero;stroke:none"
         d="m 167.938,304.09 c -4.524,34.332 -36.024,58.496 -70.356,53.973 -34.332,-4.52 -58.5,-36.02 -53.9765,-70.352 4.5234,-34.336 36.0234,-58.5 70.3555,-53.977 34.332,4.524 58.5,36.02 53.977,70.356" /><g
         id="g3401"><g
           clip-path="url(#clipPath3405)"
           id="g3403"><path
             id="path3415"
             style="fill:url(#linearGradient3409);fill-opacity:1;fill-rule:nonzero;stroke:none"
             d="M 85.2852,570.719 516.813,593.84 54.5195,690.582" /></g></g><path
         id="path3417"
         style="fill:#133a73;fill-opacity:1;fill-rule:nonzero;stroke:none"
         d="m 124.875,636.605 c -4.523,34.333 -36.0234,58.5 -70.3555,53.977 C 20.1875,686.059 -3.98047,654.559 0.542969,620.227 5.06641,585.895 36.5664,561.727 70.8984,566.25 c 34.3356,4.523 58.4996,36.023 53.9766,70.355" /><g
         id="g3419"><g
           clip-path="url(#clipPath3423)"
           id="g3421"><path
             id="path3433"
             style="fill:url(#linearGradient3427);fill-opacity:1;fill-rule:nonzero;stroke:none"
             d="m 538.137,270.234 95.324,293.5 -205.699,-247.089" /></g></g><path
         id="path3435"
         style="fill:#4194d7;fill-opacity:1;fill-rule:nonzero;stroke:none"
         d="m 541.352,289.715 c -4.524,34.332 -36.024,58.5 -70.356,53.973 -34.336,-4.52 -58.5,-36.02 -53.976,-70.352 4.523,-34.336 36.023,-58.5 70.355,-53.977 34.332,4.524 58.496,36.024 53.977,70.356" /><g
         id="g3437"><g
           clip-path="url(#clipPath3441)"
           id="g3439"><path
             id="path3451"
             style="fill:url(#linearGradient3445);fill-opacity:1;fill-rule:nonzero;stroke:none"
             d="M 857.758,94.3906 656.035,546.801 745.172,53.6406" /></g></g><path
         id="path3453"
         style="fill:#b9d110;fill-opacity:1;fill-rule:nonzero;stroke:none"
         d="m 846.91,110.883 c -26.609,22.164 -66.144,18.558 -88.308,-8.051 -22.164,-26.6132 -18.559,-66.1406 8.05,-88.3125 26.61,-22.16013 66.145,-18.55075 88.309,8.0586 22.164,26.6016 18.559,66.1446 -8.051,88.3049" /><g
         id="g3455"><g
           clip-path="url(#clipPath3459)"
           id="g3457"><path
             id="path3469"
             style="fill:url(#linearGradient3463);fill-opacity:1;fill-rule:nonzero;stroke:none"
             d="M 481.316,864.746 635.938,602.125 594.625,903.445" /></g></g><path
         id="path3471"
         style="fill:#b9d110;fill-opacity:1;fill-rule:nonzero;stroke:none"
         d="m 491.863,848.059 c 26.203,-22.645 65.797,-19.758 88.442,6.441 22.64,26.203 19.758,65.797 -6.446,88.441 -26.199,22.645 -65.796,19.758 -88.437,-6.445 -22.645,-26.199 -19.762,-65.797 6.441,-88.437" /><g
         id="g3473"><g
           clip-path="url(#clipPath3477)"
           id="g3475"><path
             id="path3487"
             style="fill:url(#linearGradient3481);fill-opacity:1;fill-rule:nonzero;stroke:none"
             d="M 1085.54,913.828 683.598,585.359 1140.12,805.109" /></g></g><path
         id="path3489"
         style="fill:#22638b;fill-opacity:1;fill-rule:nonzero;stroke:none"
         d="m 1050.12,855.145 c 2.26,-34.555 32.1,-60.743 66.66,-58.485 34.55,2.254 60.74,32.098 58.48,66.653 -2.25,34.554 -32.09,60.742 -66.65,58.484 -34.56,-2.254 -60.74,-32.098 -58.49,-66.652" /><g
         id="g3491"><g
           clip-path="url(#clipPath3495)"
           id="g3493"><path
             id="path3505"
             style="fill:url(#linearGradient3499);fill-opacity:1;fill-rule:nonzero;stroke:none"
             d="M 1177.19,335.031 693.664,556.211 1106.69,235.887" /></g></g><path
         id="path3507"
         style="fill:#91d2e1;fill-opacity:1;fill-rule:nonzero;stroke:none"
         d="m 1108.75,338.84 c -29.47,-18.176 -38.63,-56.805 -20.46,-86.281 18.18,-29.477 56.81,-38.637 86.29,-20.461 29.47,18.179 38.63,56.808 20.45,86.285 -18.17,29.476 -56.8,38.637 -86.28,20.457" /><g
         id="g3509"><g
           clip-path="url(#clipPath3513)"
           id="g3511"><path
             id="path3523"
             style="fill:url(#linearGradient3517);fill-opacity:1;fill-rule:nonzero;stroke:none"
             d="M 209.754,773.73 592.074,586.313 280.926,872.391" /></g></g><path
         id="path3525"
         style="fill:#91d2e1;fill-opacity:1;fill-rule:nonzero;stroke:none"
         d="m 278.168,769.453 c 29.598,17.977 39.02,56.543 21.043,86.145 -17.977,29.597 -56.543,39.019 -86.145,21.043 C 183.469,858.664 174.047,820.098 192.023,790.5 210,760.898 248.566,751.477 278.168,769.453" /><path
         id="path3527"
         style="fill:#62b92c;fill-opacity:1;fill-rule:nonzero;stroke:none"
         d="m 714.422,718.262 c 8.172,-9.321 22.351,-10.246 31.672,-2.074 9.316,8.175 10.246,22.355 2.07,31.675 -8.172,9.317 -22.351,10.246 -31.672,2.071 -9.316,-8.172 -10.246,-22.356 -2.07,-31.672" /><path
         id="path3529"
         style="fill:#62b92c;fill-opacity:1;fill-rule:nonzero;stroke:none"
         d="m 827.305,484.969 c 8.175,-9.321 22.355,-10.25 31.672,-2.074 9.32,8.171 10.25,22.355 2.074,31.671 -8.172,9.321 -22.356,10.247 -31.672,2.075 -9.32,-8.176 -10.246,-22.356 -2.074,-31.672" /><path
         id="path3531"
         style="fill:#62b92c;fill-opacity:1;fill-rule:nonzero;stroke:none"
         d="m 906.813,877.289 c 8.175,-9.316 22.355,-10.246 31.675,-2.07 9.317,8.172 10.246,22.351 2.071,31.672 -8.172,9.32 -22.356,10.246 -31.672,2.074 -9.321,-8.176 -10.246,-22.356 -2.074,-31.676" /><path
         id="path3533"
         style="fill:#62b92c;fill-opacity:1;fill-rule:nonzero;stroke:none"
         d="m 987.531,166.984 c 8.172,-9.32 22.359,-10.246 31.669,-2.074 9.32,8.176 10.25,22.356 2.08,31.676 -8.18,9.316 -22.358,10.242 -31.678,2.07 -9.317,-8.176 -10.247,-22.355 -2.071,-31.672" /><path
         id="path3535"
         style="fill:#62b92c;fill-opacity:1;fill-rule:nonzero;stroke:none"
         d="m 140.008,473.707 c 8.172,-9.32 22.351,-10.246 31.672,-2.074 9.316,8.176 10.246,22.355 2.074,31.676 -8.176,9.316 -22.356,10.246 -31.676,2.07 -9.316,-8.172 -10.246,-22.356 -2.07,-31.672" /><path
         id="path3537"
         style="fill:#62b92c;fill-opacity:1;fill-rule:nonzero;stroke:none"
         d="m 609.063,315.641 c 8.171,-9.321 22.355,-10.246 31.671,-2.075 9.321,8.176 10.246,22.356 2.075,31.676 -8.176,9.317 -22.356,10.246 -31.676,2.071 -9.317,-8.172 -10.246,-22.352 -2.07,-31.672" /><path
         id="path3539"
         style="fill:#62b92c;fill-opacity:1;fill-rule:nonzero;stroke:none"
         d="m 458.551,398.422 c 8.172,-9.317 22.351,-10.246 31.672,-2.07 9.32,8.171 10.246,22.351 2.074,31.671 -8.176,9.317 -22.356,10.247 -31.676,2.071 -9.316,-8.172 -10.246,-22.352 -2.07,-31.672" /><path
         id="path3541"
         style="fill:#133a73;fill-opacity:1;fill-rule:nonzero;stroke:none"
         d="m 518.754,661.82 c 8.176,-9.32 22.355,-10.246 31.672,-2.074 9.32,8.176 10.25,22.356 2.074,31.676 -8.176,9.316 -22.355,10.246 -31.672,2.07 -9.32,-8.172 -10.25,-22.355 -2.074,-31.672" /><path
         id="path3543"
         style="fill:#133a73;fill-opacity:1;fill-rule:nonzero;stroke:none"
         d="m 744.523,394.66 c 8.172,-9.32 22.356,-10.246 31.672,-2.074 9.321,8.176 10.246,22.355 2.075,31.676 -8.176,9.316 -22.356,10.246 -31.672,2.07 -9.321,-8.172 -10.25,-22.355 -2.075,-31.672" /><path
         id="path3545"
         style="fill:#133a73;fill-opacity:1;fill-rule:nonzero;stroke:none"
         d="m 714.422,605.379 c 8.172,-9.32 22.351,-10.246 31.672,-2.074 9.316,8.172 10.246,22.355 2.07,31.672 -8.172,9.32 -22.351,10.246 -31.672,2.074 -9.316,-8.176 -10.246,-22.356 -2.07,-31.672" /><path
         id="path3547"
         style="fill:#133a73;fill-opacity:1;fill-rule:nonzero;stroke:none"
         d="m 368.242,469.918 c 8.172,-9.32 22.356,-10.25 31.672,-2.074 9.32,8.172 10.246,22.355 2.074,31.672 -8.175,9.32 -22.355,10.246 -31.675,2.074 -9.317,-8.176 -10.247,-22.356 -2.071,-31.672" /><path
         id="path3549"
         style="fill:#4194d7;fill-opacity:1;fill-rule:nonzero;stroke:none"
         d="m 633.461,620.176 c 8.172,-9.317 22.355,-10.246 31.672,-2.071 9.32,8.172 10.246,22.356 2.074,31.672 -8.176,9.321 -22.355,10.246 -31.676,2.075 -9.316,-8.176 -10.246,-22.356 -2.07,-31.676" /><path
         id="path3551"
         style="fill:#4194d7;fill-opacity:1;fill-rule:nonzero;stroke:none"
         d="m 646.691,752.129 c 8.172,-9.32 22.352,-10.25 31.672,-2.074 9.321,8.172 10.246,22.355 2.075,31.672 -8.176,9.32 -22.356,10.246 -31.676,2.074 -9.317,-8.176 -10.246,-22.356 -2.071,-31.672" /><path
         id="path3553"
         style="fill:#4194d7;fill-opacity:1;fill-rule:nonzero;stroke:none"
         d="m 819.777,334.453 c 8.176,-9.316 22.356,-10.246 31.676,-2.07 9.317,8.172 10.246,22.351 2.07,31.672 -8.171,9.32 -22.351,10.246 -31.671,2.074 -9.321,-8.176 -10.247,-22.356 -2.075,-31.676" /><path
         id="path3555"
         style="fill:#4194d7;fill-opacity:1;fill-rule:nonzero;stroke:none"
         d="m 812.242,571.512 c 8.176,-9.321 22.356,-10.246 31.676,-2.074 9.316,8.175 10.246,22.355 2.07,31.675 -8.172,9.317 -22.351,10.246 -31.672,2.071 -9.316,-8.172 -10.246,-22.356 -2.074,-31.672" /><path
         id="path3557"
         style="fill:#4194d7;fill-opacity:1;fill-rule:nonzero;stroke:none"
         d="m 382.156,392.988 c 8.172,-9.316 22.356,-10.246 31.672,-2.07 9.32,8.172 10.246,22.355 2.074,31.672 -8.175,9.32 -22.355,10.246 -31.672,2.074 -9.32,-8.176 -10.25,-22.355 -2.074,-31.676" /><path
         id="path3559"
         style="fill:#4194d7;fill-opacity:1;fill-rule:nonzero;stroke:none"
         d="m 613.543,476.398 c 8.176,-9.32 22.355,-10.25 31.676,-2.074 9.316,8.176 10.246,22.356 2.07,31.672 -8.172,9.32 -22.355,10.246 -31.672,2.074 -9.32,-8.175 -10.246,-22.355 -2.074,-31.672" /><path
         id="path3561"
         style="fill:#4194d7;fill-opacity:1;fill-rule:nonzero;stroke:none"
         d="m 435.969,645.902 c 8.172,-9.32 22.351,-10.246 31.672,-2.074 9.32,8.176 10.246,22.356 2.074,31.676 -8.176,9.316 -22.356,10.246 -31.676,2.07 -9.316,-8.172 -10.246,-22.355 -2.07,-31.672" /><path
         id="path3563"
         style="fill:#4194d7;fill-opacity:1;fill-rule:nonzero;stroke:none"
         d="m 629.688,164.293 c 8.171,-9.32 22.355,-10.246 31.671,-2.074 9.321,8.176 10.246,22.355 2.075,31.676 -8.176,9.316 -22.356,10.246 -31.672,2.07 -9.321,-8.172 -10.25,-22.356 -2.074,-31.672" /><path
         id="path3565"
         style="fill:#b9d110;fill-opacity:1;fill-rule:nonzero;stroke:none"
         d="m 499.398,462.395 c 12.329,-1.301 23.379,7.632 24.684,19.96 1.305,12.325 -7.633,23.375 -19.961,24.68 -12.324,1.305 -23.375,-7.633 -24.68,-19.957 -1.304,-12.328 7.633,-23.379 19.957,-24.683" /><path
         id="path3567"
         style="fill:#b9d110;fill-opacity:1;fill-rule:nonzero;stroke:none"
         d="m 721.23,510.641 c -12.3,1.527 -23.511,-7.207 -25.039,-19.508 -1.527,-12.301 7.207,-23.512 19.508,-25.039 12.301,-1.528 23.512,7.207 25.039,19.508 1.528,12.3 -7.207,23.507 -19.508,25.039" /><path
         id="path3569"
         style="fill:#22638b;fill-opacity:1;fill-rule:nonzero;stroke:none"
         d="m 594.34,420.676 c -7.543,9.836 -21.629,11.695 -31.469,4.152 -9.836,-7.543 -11.691,-21.633 -4.148,-31.469 7.543,-9.836 21.632,-11.695 31.468,-4.152 9.836,7.543 11.696,21.633 4.149,31.469" /><path
         id="path3571"
         style="fill:#22638b;fill-opacity:1;fill-rule:nonzero;stroke:none"
         d="m 594.828,581.156 c -7.543,9.836 -21.633,11.696 -31.469,4.153 -9.836,-7.543 -11.695,-21.633 -4.152,-31.469 7.547,-9.836 21.633,-11.695 31.469,-4.152 9.836,7.542 11.695,21.632 4.152,31.468" /><path
         id="path3573"
         style="fill:#91d2e1;fill-opacity:1;fill-rule:nonzero;stroke:none"
         d="m 458.199,576.973 c 5.156,11.273 0.199,24.59 -11.07,29.75 -11.274,5.156 -24.59,0.199 -29.746,-11.071 -5.16,-11.273 -0.203,-24.589 11.066,-29.75 11.274,-5.156 24.594,-0.199 29.75,11.071" /><path
         id="path3575"
         style="fill:#91d2e1;fill-opacity:1;fill-rule:nonzero;stroke:none"
         d="m 635.691,569.449 c -5.234,-11.234 -0.367,-24.59 10.868,-29.82 11.238,-5.234 24.589,-0.371 29.824,10.867 5.234,11.234 0.367,24.586 -10.867,29.82 -11.239,5.235 -24.59,0.372 -29.825,-10.867" /></g></g></svg>