<svg id="VMware_Apps_EXPAND_AQ" data-name="VMware Apps EXPAND AQ" xmlns="http://www.w3.org/2000/svg" viewBox="0 0 120 88.23"><defs><style>.cls-1{fill:#0091da;}.cls-2{fill:#fff;}</style></defs><rect class="cls-1" x="18.85" y="58.58" width="1.93" height="9.63"/><rect class="cls-1" x="22.7" y="58.58" width="1.93" height="9.63"/><rect class="cls-1" x="26.55" y="58.58" width="1.93" height="9.63"/><path class="cls-1" d="M33.29,73H14V53.77H33.29ZM16,71.11H31.37V55.69H16Z"/><rect class="cls-1" x="91.53" y="58.58" width="1.93" height="9.63"/><rect class="cls-1" x="95.38" y="58.58" width="1.93" height="9.63"/><rect class="cls-1" x="99.24" y="58.58" width="1.93" height="9.63"/><path class="cls-1" d="M106,73H86.71V53.77H106ZM88.64,71.11h15.41V55.69H88.64Z"/><path class="cls-1" d="M74.36,54.51H45.82V30.28H74.36ZM47.34,53h25.5V31.79H47.34Z"/><polygon class="cls-1" points="52.37 50.55 49.05 50.55 49.05 33.89 52.37 33.89 52.37 35.4 50.57 35.4 50.57 49.03 52.37 49.03 52.37 50.55"/><polygon class="cls-1" points="58.49 50.55 55.18 50.55 55.18 33.89 58.49 33.89 58.49 35.4 56.69 35.4 56.69 49.03 58.49 49.03 58.49 50.55"/><polygon class="cls-1" points="64.61 50.55 61.3 50.55 61.3 33.89 64.61 33.89 64.61 35.4 62.81 35.4 62.81 49.03 64.61 49.03 64.61 50.55"/><polygon class="cls-1" points="70.73 50.55 67.42 50.55 67.42 33.89 70.73 33.89 70.73 35.4 68.94 35.4 68.94 49.03 70.73 49.03 70.73 50.55"/><rect class="cls-2" x="78.72" y="53.24" width="16.66" height="17.86"/><rect class="cls-2" x="24.63" y="53.24" width="16.66" height="17.86"/><path class="cls-1" d="M22.28,40.44H6.72a4.81,4.81,0,0,0-4.81,4.81v36.3a4.81,4.81,0,0,0,4.81,4.81H43a4.81,4.81,0,0,0,4.81-4.81V75.07H44.76v6.48A1.74,1.74,0,0,1,43,83.29H6.72A1.72,1.72,0,0,1,5,81.55V45.25a1.74,1.74,0,0,1,1.74-1.74H22.28Z"/><path class="cls-1" d="M113.28,40.44H97.91v3.07h15.37A1.74,1.74,0,0,1,115,45.25v36.3a1.74,1.74,0,0,1-1.74,1.74H77a1.74,1.74,0,0,1-1.74-1.74V75.07H72.15v6.48A4.81,4.81,0,0,0,77,86.36h36.32a4.81,4.81,0,0,0,4.81-4.81V45.25A4.81,4.81,0,0,0,113.28,40.44Z"/><path class="cls-1" d="M94.52,7.89V63.64A6.56,6.56,0,0,1,88,70.2H32.22a6.56,6.56,0,0,1-6.56-6.56V7.89a6.56,6.56,0,0,1,6.56-6.56H88A6.56,6.56,0,0,1,94.52,7.89ZM88,67.13a3.49,3.49,0,0,0,3.49-3.49V7.89A3.49,3.49,0,0,0,88,4.4H32.22a3.49,3.49,0,0,0-3.49,3.49V63.64a3.49,3.49,0,0,0,3.49,3.49Z"/><path class="cls-1" d="M52.68,21.53H47.23l-1,2.22H45L49.35,14h1.21l4.31,9.78H53.66Zm-.46-1.06L50,15.33l-2.28,5.14Z"/><path class="cls-1" d="M57.31,14h4c2,0,3.6,1.29,3.6,3.13s-1.58,3.13-3.6,3.13H58.42v3.52H57.31Zm3.77,5.21c1.59,0,2.68-.77,2.68-2.08S62.67,15,61.08,15H58.42v4.16Z"/><path class="cls-1" d="M67.33,14h4c2,0,3.6,1.29,3.6,3.13s-1.58,3.13-3.6,3.13H68.44v3.52H67.33Zm3.77,5.21c1.6,0,2.68-.77,2.68-2.08S72.7,15,71.1,15H68.44v4.16Z"/></svg>