<svg id="NEW_Expanded_AQ" data-name="NEW Expanded AQ" xmlns="http://www.w3.org/2000/svg" viewBox="0 0 120 120"><defs><style>.cls-1{fill:#fff;}</style></defs><path class="cls-1" d="M50.27,56.82H42.46L41.05,60H39.32L45.5,46h1.73L53.4,60H51.67Zm-.66-1.51L46.37,48l-3.26,7.36Z"/><path class="cls-1" d="M56.89,46h5.69c2.9,0,5.16,1.85,5.16,4.48S65.48,55,62.58,55h-4.1v5H56.89Zm5.41,7.46c2.28,0,3.83-1.1,3.83-3s-1.55-3-3.83-3H58.48v6Z"/><path class="cls-1" d="M71.25,46h5.68c2.9,0,5.16,1.85,5.16,4.48S79.83,55,76.93,55H72.84v5H71.25Zm5.4,7.46c2.28,0,3.83-1.1,3.83-3s-1.55-3-3.83-3H72.84v6Z"/><path class="cls-1" d="M92.82,35.24a3.88,3.88,0,0,1,3.88,3.87v65.65a3.88,3.88,0,0,1-3.88,3.88H27.18a3.88,3.88,0,0,1-3.88-3.88V39.11a3.88,3.88,0,0,1,3.88-3.87H92.82m0-2H27.18a5.92,5.92,0,0,0-5.92,5.91v65.65a5.92,5.92,0,0,0,5.92,5.92H92.82a5.92,5.92,0,0,0,5.92-5.92V39.11a5.92,5.92,0,0,0-5.92-5.91Z"/><rect class="cls-1" x="38.57" y="83.15" width="2.04" height="10.19"/><rect class="cls-1" x="42.64" y="83.15" width="2.04" height="10.19"/><rect class="cls-1" x="46.72" y="83.15" width="2.04" height="10.19"/><path class="cls-1" d="M53.86,98.44H33.47V78.05H53.86Zm-18.35-2H51.82V80.09H35.51Z"/><rect class="cls-1" x="71.25" y="83.15" width="2.04" height="10.19"/><rect class="cls-1" x="75.33" y="83.15" width="2.04" height="10.19"/><rect class="cls-1" x="79.41" y="83.15" width="2.04" height="10.19"/><path class="cls-1" d="M86.54,98.44H66.15V78.05H86.54Zm-18.35-2H84.5V80.09H68.19Z"/><path class="cls-1" d="M109.31,4.87a5.83,5.83,0,0,1,5.82,5.82v98.62a5.83,5.83,0,0,1-5.82,5.82H10.69a5.83,5.83,0,0,1-5.82-5.82V10.69a5.83,5.83,0,0,1,5.82-5.82h98.62m0-3.06H10.69a8.87,8.87,0,0,0-8.88,8.88v98.62a8.87,8.87,0,0,0,8.88,8.88h98.62a8.87,8.87,0,0,0,8.88-8.88V10.69a8.87,8.87,0,0,0-8.88-8.88Z"/><path class="cls-1" d="M22.86,12.44H27a4.22,4.22,0,0,1,1.89.41A3.34,3.34,0,0,1,30.19,14a3.09,3.09,0,0,1,0,3.34,3.34,3.34,0,0,1-1.34,1.15,4.23,4.23,0,0,1-1.89.42H24v3.63H22.86Zm3.9,5.38a3.22,3.22,0,0,0,2-.58,2,2,0,0,0,0-3.14,3.28,3.28,0,0,0-2-.58H24v4.3Z"/><path class="cls-1" d="M37.7,15.13a2.54,2.54,0,0,1,1,1,3.21,3.21,0,0,1,.36,1.54v4.84H38V17.85a2.12,2.12,0,0,0-.53-1.52,1.76,1.76,0,0,0-1.36-.59,2.59,2.59,0,0,0-1.18.27,2.24,2.24,0,0,0-.86.71,1.69,1.69,0,0,0-.32,1v4.84h-1.1V12.26h1.1v3.88a2.65,2.65,0,0,1,1-1,3,3,0,0,1,1.48-.38A2.92,2.92,0,0,1,37.7,15.13Z"/><path class="cls-1" d="M42.75,22.18a4,4,0,0,1-1.44-1.46,4,4,0,0,1,1.44-5.42,3.73,3.73,0,0,1,2-.54,3.67,3.67,0,0,1,1.95.54,4,4,0,0,1,1.43,5.42,4,4,0,0,1-1.43,1.46,3.76,3.76,0,0,1-1.95.53A3.82,3.82,0,0,1,42.75,22.18Zm3.34-.86a3,3,0,0,0,1-1.09,3.09,3.09,0,0,0,.37-1.5,3,3,0,0,0-.37-1.49,3,3,0,0,0-1-1.09,2.51,2.51,0,0,0-1.38-.41,2.56,2.56,0,0,0-1.39.41,2.87,2.87,0,0,0-1,1.09,3,3,0,0,0-.38,1.49,3.1,3.1,0,0,0,.38,1.5,2.87,2.87,0,0,0,1,1.09,2.56,2.56,0,0,0,1.39.41A2.51,2.51,0,0,0,46.09,21.32Z"/><path class="cls-1" d="M54,22.23a2.23,2.23,0,0,1-1.41.48,1.77,1.77,0,0,1-1.33-.54,1.93,1.93,0,0,1-.52-1.4V15.92H49.55v-1h1.19V12.85h1.1v2.09h1.87v1H51.84v4.85a1,1,0,0,0,.24.69.76.76,0,0,0,.58.27,1.14,1.14,0,0,0,.46-.09,1.05,1.05,0,0,0,.34-.22Z"/><path class="cls-1" d="M56.89,22.18a4,4,0,0,1-1.43-1.46,4,4,0,0,1,0-4,4,4,0,0,1,1.43-1.44,3.83,3.83,0,0,1,3.92,0,3.92,3.92,0,0,1,1.42,1.44,4,4,0,0,1,0,4,4,4,0,0,1-1.42,1.46,3.89,3.89,0,0,1-3.92,0Zm3.34-.86a2.87,2.87,0,0,0,1-1.09,3.1,3.1,0,0,0,.38-1.5,3,3,0,0,0-.38-1.49,2.87,2.87,0,0,0-1-1.09,2.51,2.51,0,0,0-1.38-.41,2.56,2.56,0,0,0-1.39.41,3,3,0,0,0-1,1.09,3,3,0,0,0-.38,1.49,3.1,3.1,0,0,0,.38,1.5,3,3,0,0,0,1,1.09,2.56,2.56,0,0,0,1.39.41A2.51,2.51,0,0,0,60.23,21.32Z"/><path class="cls-1" d="M69.75,15.13a2.54,2.54,0,0,1,1,1,3.21,3.21,0,0,1,.36,1.54v4.84H70V17.85a2.16,2.16,0,0,0-.53-1.52,1.76,1.76,0,0,0-1.37-.59,2.58,2.58,0,0,0-1.17.27,2.24,2.24,0,0,0-.86.71,1.69,1.69,0,0,0-.32,1v4.84h-1.1v-7.6h1.1v1.2a2.65,2.65,0,0,1,1-1,3,3,0,0,1,1.48-.38A2.92,2.92,0,0,1,69.75,15.13Z"/><path class="cls-1" d="M79.69,22a5.3,5.3,0,0,1-1.9-1.92,5.12,5.12,0,0,1,0-5.2A5.43,5.43,0,0,1,79.69,13a5,5,0,0,1,2.57-.71,4.92,4.92,0,0,1,2.56.71,5.49,5.49,0,0,1,1.89,1.91,5.12,5.12,0,0,1,0,5.2A5.35,5.35,0,0,1,84.82,22a4.82,4.82,0,0,1-2.56.71A4.91,4.91,0,0,1,79.69,22Zm4.56-.92a4.2,4.2,0,0,0,1.46-1.53,4,4,0,0,0,.55-2.07,4.09,4.09,0,0,0-.55-2.07,4.2,4.2,0,0,0-1.46-1.53,3.82,3.82,0,0,0-4,0,4.15,4.15,0,0,0-1.47,1.53,4.1,4.1,0,0,0-.56,2.07,4,4,0,0,0,.56,2.07,4.15,4.15,0,0,0,1.47,1.53,3.76,3.76,0,0,0,4,0Z"/><path class="cls-1" d="M88.93,21.1l.72-.9a5.24,5.24,0,0,0,1.5,1.07,4.1,4.1,0,0,0,1.81.38,3.08,3.08,0,0,0,1.28-.24,1.93,1.93,0,0,0,.8-.64,1.57,1.57,0,0,0,.27-.88,1.3,1.3,0,0,0-.64-1.17A7,7,0,0,0,92.59,18a10.12,10.12,0,0,1-1.81-.59,2.66,2.66,0,0,1-1.11-.87,2.35,2.35,0,0,1-.38-1.39,2.53,2.53,0,0,1,.44-1.46,2.94,2.94,0,0,1,1.21-1,4,4,0,0,1,1.73-.37,5,5,0,0,1,1.93.37,5.87,5.87,0,0,1,1.61,1.07l-.71.9a5.21,5.21,0,0,0-1.38-1,3.65,3.65,0,0,0-1.51-.34,2.57,2.57,0,0,0-1.11.24,1.88,1.88,0,0,0-.77.64,1.45,1.45,0,0,0-.28.86,1.19,1.19,0,0,0,.63,1.09,8,8,0,0,0,2.09.73,6.59,6.59,0,0,1,2.46,1,2.24,2.24,0,0,1,.84,1.89,2.69,2.69,0,0,1-1.61,2.53,4.6,4.6,0,0,1-1.94.38A5.52,5.52,0,0,1,88.93,21.1Z"/></svg>